<?xml version="1.0" standalone="no"?><!DOCTYPE svg PUBLIC "-//W3C//DTD SVG 1.1//EN" "http://www.w3.org/Graphics/SVG/1.1/DTD/svg11.dtd"><svg class="icon" width="200px" height="200.00px" viewBox="0 0 1024 1024" version="1.1" xmlns="http://www.w3.org/2000/svg"><path fill="#1296db" d="M640 896H384l128-147.84z m104.96-560.426667a234.666667 234.666667 0 0 0-465.92 0A234.666667 234.666667 0 1 0 512 735.786667a234.666667 234.666667 0 1 0 232.96-400.213334zM661.333333 704a149.333333 149.333333 0 0 1-149.333333-149.333333 149.333333 149.333333 0 1 1-149.333333-149.333334h6.4a151.466667 151.466667 0 0 1-6.4-42.666666 149.333333 149.333333 0 0 1 298.666666 0 151.466667 151.466667 0 0 1-6.4 42.666666h6.4a149.333333 149.333333 0 0 1 0 298.666667z" /></svg>